<svg xmlns="http://www.w3.org/2000/svg" viewBox="0 0 750 500"><g id="freepik--background-simple--inject-211"><path d="M88,181.84s57.88-79.35,176.43-97.08,251.1,88.68,304.31,128.82,156.1,76,166.16,140-23.12,95.33-23.12,95.33H41.29S18,341.46,44.09,271.45,88,181.84,88,181.84Z" style="fill:#AA3C3C"></path><path d="M88,181.84s57.88-79.35,176.43-97.08,251.1,88.68,304.31,128.82,156.1,76,166.16,140-23.12,95.33-23.12,95.33H41.29S18,341.46,44.09,271.45,88,181.84,88,181.84Z" style="fill:#fff;opacity:0.7000000000000001"></path></g><g id="freepik--pillar-2--inject-211"><rect x="591.74" y="43.63" width="119.63" height="405.3" style="fill:#fff;stroke:#263238;stroke-linecap:round;stroke-linejoin:round"></rect><rect x="591.74" y="292.63" width="119.63" height="156.3" style="fill:#AA3C3C;stroke:#263238;stroke-linecap:round;stroke-linejoin:round"></rect><polygon points="658.65 395.56 594.61 331.52 594.61 351.92 658.65 415.96 658.65 395.56" style="fill:#263238"></polygon><polygon points="709.15 446.06 693.17 430.08 693.17 446.06 709.15 446.06" style="fill:#263238"></polygon><polygon points="658.65 446.06 658.65 434.58 594.61 370.54 594.61 390.94 649.73 446.06 658.65 446.06" style="fill:#263238"></polygon><polygon points="658.65 356.54 597.57 295.46 594.61 295.46 594.61 312.9 658.65 376.94 658.65 356.54" style="fill:#263238"></polygon><polygon points="693.17 391.06 693.17 411.46 711.37 429.66 711.37 409.26 693.17 391.06" style="fill:#263238"></polygon><polygon points="631.11 446.06 594.61 409.56 594.61 429.95 610.71 446.06 631.11 446.06" style="fill:#263238"></polygon><polygon points="658.65 317.52 636.59 295.46 616.19 295.46 658.65 337.92 658.65 317.52" style="fill:#263238"></polygon><polygon points="693.17 352.04 693.17 372.44 711.37 390.64 711.37 370.24 693.17 352.04" style="fill:#263238"></polygon><rect x="662.88" y="43.63" width="48.49" height="405.3" style="fill:#fff;stroke:#263238;stroke-linecap:round;stroke-linejoin:round"></rect><rect x="662.88" y="292.63" width="48.49" height="156.3" style="fill:#AA3C3C;stroke:#263238;stroke-linecap:round;stroke-linejoin:round"></rect><polygon points="666.15 363.23 666.15 383.63 709.68 340.1 709.68 319.7 666.15 363.23" style="fill:#263238"></polygon><polygon points="666.15 441.26 666.15 448.93 678.89 448.93 709.68 418.14 709.68 397.74 666.15 441.26" style="fill:#263238"></polygon><polygon points="695.4 294.96 666.15 324.21 666.15 344.61 709.68 301.08 709.68 294.96 695.4 294.96" style="fill:#263238"></polygon><polygon points="666.15 402.25 666.15 422.64 709.68 379.12 709.68 358.72 666.15 402.25" style="fill:#263238"></polygon><polygon points="709.68 436.75 697.51 448.93 709.68 448.93 709.68 436.75" style="fill:#263238"></polygon></g><g id="freepik--lights-2--inject-211"><line x1="346.4" y1="78.16" x2="346.4" y2="43.63" style="fill:none;stroke:#263238;stroke-linecap:round;stroke-linejoin:round"></line><line x1="321.94" y1="78.16" x2="321.94" y2="43.63" style="fill:#fff;stroke:#000;stroke-miterlimit:10"></line><line x1="297.48" y1="78.16" x2="297.48" y2="43.63" style="fill:#fff;stroke:#000;stroke-miterlimit:10"></line><line x1="433.46" y1="78.16" x2="433.46" y2="43.63" style="fill:none;stroke:#263238;stroke-linecap:round;stroke-linejoin:round"></line><line x1="409" y1="78.16" x2="409" y2="43.63" style="fill:#fff;stroke:#000;stroke-miterlimit:10"></line><line x1="384.54" y1="78.16" x2="384.54" y2="43.63" style="fill:#fff;stroke:#000;stroke-miterlimit:10"></line><line x1="520.53" y1="78.16" x2="520.53" y2="43.63" style="fill:none;stroke:#263238;stroke-linecap:round;stroke-linejoin:round"></line><line x1="496.06" y1="78.16" x2="496.06" y2="43.63" style="fill:#fff;stroke:#000;stroke-miterlimit:10"></line><line x1="471.6" y1="78.16" x2="471.6" y2="43.63" style="fill:#fff;stroke:#000;stroke-miterlimit:10"></line><line x1="607.59" y1="78.16" x2="607.59" y2="43.63" style="fill:none;stroke:#263238;stroke-linecap:round;stroke-linejoin:round"></line><line x1="583.12" y1="78.16" x2="583.12" y2="43.63" style="fill:#fff;stroke:#000;stroke-miterlimit:10"></line><line x1="558.66" y1="78.16" x2="558.66" y2="43.63" style="fill:#fff;stroke:#000;stroke-miterlimit:10"></line><rect x="552.71" y="78.96" width="72.38" height="12.94" style="fill:#263238;stroke:#263238;stroke-linecap:round;stroke-linejoin:round"></rect><rect x="552.71" y="83.4" width="72.38" height="8.5" style="fill:#fff;stroke:#263238;stroke-linecap:round;stroke-linejoin:round"></rect><rect x="575.08" y="83.4" width="50.01" height="8.5" style="fill:#fff;stroke:#263238;stroke-linecap:round;stroke-linejoin:round"></rect><rect x="462.42" y="78.96" width="72.38" height="12.94" style="fill:#263238;stroke:#263238;stroke-linecap:round;stroke-linejoin:round"></rect><rect x="462.42" y="83.4" width="72.38" height="8.5" style="fill:#fff;stroke:#263238;stroke-linecap:round;stroke-linejoin:round"></rect><rect x="484.79" y="83.4" width="50.01" height="8.5" style="fill:#fff;stroke:#263238;stroke-linecap:round;stroke-linejoin:round"></rect><rect x="372.14" y="78.96" width="72.38" height="12.94" style="fill:#263238;stroke:#263238;stroke-linecap:round;stroke-linejoin:round"></rect><rect x="372.14" y="83.4" width="72.38" height="8.5" style="fill:#fff;stroke:#263238;stroke-linecap:round;stroke-linejoin:round"></rect><rect x="394.51" y="83.4" width="50.01" height="8.5" style="fill:#fff;stroke:#263238;stroke-linecap:round;stroke-linejoin:round"></rect><rect x="281.85" y="78.96" width="72.38" height="12.94" style="fill:#263238;stroke:#263238;stroke-linecap:round;stroke-linejoin:round"></rect><rect x="281.85" y="83.4" width="72.38" height="8.5" style="fill:#fff;stroke:#263238;stroke-linecap:round;stroke-linejoin:round"></rect><rect x="304.22" y="83.4" width="50.01" height="8.5" style="fill:#fff;stroke:#263238;stroke-linecap:round;stroke-linejoin:round"></rect><rect x="280.21" y="64.49" width="343.93" height="5.76" style="fill:#263238;stroke:#263238;stroke-linecap:round;stroke-linejoin:round"></rect></g><g id="freepik--car-2--inject-211"><path d="M600.34,399.1h-8.77l-.13.19a14.29,14.29,0,0,0-2.27-.19c-10.69,0-19.36,11.15-19.36,24.91s8.67,24.92,19.36,24.92a15.56,15.56,0,0,0,2.27-.19l.13.19h8.77c10.69,0,19.36-11.16,19.36-24.92S611,399.1,600.34,399.1Z" style="fill:#263238;stroke:#263238;stroke-linecap:round;stroke-linejoin:round"></path><path d="M420.69,399.1h-8.77l-.13.19a14.29,14.29,0,0,0-2.27-.19c-10.69,0-19.36,11.15-19.36,24.91s8.67,24.92,19.36,24.92a15.56,15.56,0,0,0,2.27-.19l.13.19h8.77c10.69,0,19.36-11.16,19.36-24.92S431.38,399.1,420.69,399.1Z" style="fill:#263238;stroke:#263238;stroke-linecap:round;stroke-linejoin:round"></path><path d="M683.8,399.83h-4.21l-3.77-26.43a6.54,6.54,0,0,0-6.47-5.61H645.76l-38.3-40.65a21.92,21.92,0,0,0-16-6.89H490a16.22,16.22,0,0,0-11.72,5l-174.4,73.62V430H565.31l65.62-.47,48.66-3.19v-.22h4a1.6,1.6,0,0,0,1.6-1.6V401.22A1.39,1.39,0,0,0,683.8,399.83Z" style="fill:#b2b2b2;stroke:#263238;stroke-linecap:round;stroke-linejoin:round"></path><path d="M609.52,425.18v4.46l21.41-.15,48.66-3.19v-.22h4a1.58,1.58,0,0,0,1.42-.9Z" style="fill:#263238;stroke:#263238;stroke-linecap:round;stroke-linejoin:round"></path><path d="M630.93,429.49h0a1.6,1.6,0,0,0-.1-3.19H606.22l-91-106H490a16.22,16.22,0,0,0-11.72,5l-174.4,73.62V430H565.31Z" style="fill:#263238;stroke:#263238;stroke-linecap:round;stroke-linejoin:round"></path><path d="M344.57,399.1H335.8l-5.75,8.44a30.44,30.44,0,0,0,0,32.94l5.75,8.45h8.77c10.7,0,19.37-11.16,19.37-24.92S355.27,399.1,344.57,399.1Z" style="fill:#263238;stroke:#263238;stroke-linecap:round;stroke-linejoin:round"></path><ellipse cx="333.41" cy="424.01" rx="19.36" ry="24.91" style="fill:#636363;stroke:#263238;stroke-linecap:round;stroke-linejoin:round"></ellipse><ellipse cx="333.41" cy="424.01" rx="15.45" ry="19.87" style="fill:#fff;stroke:#263238;stroke-linecap:round;stroke-linejoin:round"></ellipse><path d="M336.68,424c0,2.32-1.47,4.2-3.27,4.2s-3.26-1.88-3.26-4.2,1.46-4.2,3.26-4.2S336.68,421.69,336.68,424Z" style="fill:#fff;stroke:#263238;stroke-linecap:round;stroke-linejoin:round"></path><path d="M540,399.1h-8.78l-5.75,8.44a30.44,30.44,0,0,0,0,32.94l5.75,8.45H540c10.69,0,19.36-11.16,19.36-24.92S550.69,399.1,540,399.1Z" style="fill:#263238;stroke:#263238;stroke-linecap:round;stroke-linejoin:round"></path><ellipse cx="528.83" cy="424.01" rx="19.36" ry="24.91" style="fill:#636363;stroke:#263238;stroke-linecap:round;stroke-linejoin:round"></ellipse><ellipse cx="528.83" cy="424.01" rx="15.45" ry="19.87" style="fill:#fff;stroke:#263238;stroke-linecap:round;stroke-linejoin:round"></ellipse><path d="M532.1,424c0,2.32-1.46,4.2-3.27,4.2s-3.26-1.88-3.26-4.2,1.46-4.2,3.26-4.2S532.1,421.69,532.1,424Z" style="fill:#fff;stroke:#263238;stroke-linecap:round;stroke-linejoin:round"></path><path d="M607.46,327.14c-.32-.33-.66-.64-1-.95h-79.1v39.08h116Z" style="fill:#263238;stroke:#263238;stroke-linecap:round;stroke-linejoin:round"></path><path d="M616.55,399.83h-4.61l-4.58-32H578.11l-38.3-40.65a22,22,0,0,0-16-6.89H430.63a16.22,16.22,0,0,0-11.72,5L359.37,365l-55.08,23.77-8.62,11.58a16.5,16.5,0,0,0-3.27,9.85V430h17.38v-6.57c0-16.07,11.68-29.09,26.09-29.09h0c12.84,0,20.82,10.41,22.82,24.55L360.26,430H505.43v-6.57c0-16.07,6.59-29.09,24.3-29.09h0c15.79,0,21.44,10.41,23.9,24.55l1.85,10.64,56.46-3.19v-.22h4.61Z" style="fill:#b2b2b2;stroke:#263238;stroke-linecap:round;stroke-linejoin:round"></path><path d="M419.41,331.1,368.29,365h95.54V326.65H430A14.79,14.79,0,0,0,419.41,331.1Z" style="fill:#263238;stroke:#263238;stroke-linecap:round;stroke-linejoin:round"></path><path d="M408.31,365l30.3-38.39H430a14.79,14.79,0,0,0-10.59,4.45L401.52,343,384.11,365Z" style="fill:#fff;stroke:#263238;stroke-linecap:round;stroke-linejoin:round"></path><polygon points="463.83 365.04 463.83 337.47 442.07 365.04 463.83 365.04" style="fill:#fff;stroke:#263238;stroke-linecap:round;stroke-linejoin:round"></polygon><path d="M536.62,332.9l21.73,22.23a5.78,5.78,0,0,1,1.49,2.66h0a5.83,5.83,0,0,1-5.66,7.25H470.23V326.65h51.53A20.78,20.78,0,0,1,536.62,332.9Z" style="fill:#263238;stroke:#263238;stroke-linecap:round;stroke-linejoin:round"></path><polygon points="516.26 326.65 507.82 326.65 477.52 365.04 485.96 365.04 516.26 326.65" style="fill:#fff;stroke:#263238;stroke-linecap:round;stroke-linejoin:round"></polygon><polygon points="470.23 329.36 470.23 360.03 496.57 326.65 472.37 326.65 470.23 329.36" style="fill:#fff;stroke:#263238;stroke-linecap:round;stroke-linejoin:round"></polygon><path d="M607.36,367.79h62a6.54,6.54,0,0,1,6.47,5.61l3.77,26.43H611.94Z" style="fill:#b2b2b2;stroke:#263238;stroke-linecap:round;stroke-linejoin:round"></path><rect x="636.81" y="382.24" width="29.4" height="12.07" style="fill:#fff;stroke:#263238;stroke-linecap:round;stroke-linejoin:round"></rect><line x1="682.82" y1="404.77" x2="556.85" y2="404.77" style="fill:#fff;stroke:#263238;stroke-linecap:round;stroke-linejoin:round;stroke-width:2px"></line><line x1="500.56" y1="404.77" x2="360.97" y2="404.77" style="fill:#fff;stroke:#263238;stroke-linecap:round;stroke-linejoin:round;stroke-width:2px"></line><line x1="314.62" y1="404.77" x2="298.64" y2="404.77" style="fill:#fff;stroke:#263238;stroke-linecap:round;stroke-linejoin:round;stroke-width:2px"></line><path d="M631.73,382.43H604a6.91,6.91,0,0,0-6.19,3.83l-4.65,9.29a2.79,2.79,0,0,0,2.5,4h36.11Z" style="fill:#b2b2b2;stroke:#263238;stroke-linecap:round;stroke-linejoin:round"></path><polygon points="631.73 382.43 609.35 382.43 611.8 399.59 631.73 399.59 631.73 382.43" style="fill:#263238;stroke:#263238;stroke-linecap:round;stroke-linejoin:round"></polygon><polygon points="677 382.43 670.22 382.43 670.14 399.59 679.45 399.59 677 382.43" style="fill:#263238;stroke:#263238;stroke-linecap:round;stroke-linejoin:round"></polygon><rect x="358.69" y="357.04" width="17.83" height="15.09" rx="2" style="fill:#263238;stroke:#263238;stroke-linecap:round;stroke-linejoin:round"></rect><rect x="444.4" y="372.13" width="17.14" height="6.86" style="fill:#263238;stroke:#263238;stroke-linecap:round;stroke-linejoin:round"></rect><line x1="465.66" y1="369.39" x2="465.66" y2="421.5" style="fill:none;stroke:#263238;stroke-linecap:round;stroke-linejoin:round"></line><path d="M349.77,392.7s12.56,7.09,14.17,31.31H497.2" style="fill:none;stroke:#263238;stroke-linecap:round;stroke-linejoin:round"></path><path d="M560.28,403s-6.56-17.15-28.54-17.15c-15.32,0-22.65,8.05-26.31,14.4" style="fill:none;stroke:#263238;stroke-linecap:round;stroke-linejoin:round"></path></g><g id="freepik--car-1--inject-211"><path d="M401.85,399.1h-8.77l-.13.19a14.07,14.07,0,0,0-2.26-.19c-10.7,0-19.36,11.15-19.36,24.91s8.66,24.92,19.36,24.92a15.31,15.31,0,0,0,2.26-.19l.13.19h8.77c10.69,0,19.36-11.16,19.36-24.92S412.54,399.1,401.85,399.1Z" style="fill:#263238;stroke:#263238;stroke-linecap:round;stroke-linejoin:round"></path><path d="M222.2,399.1h-8.77l-.13.19a14.07,14.07,0,0,0-2.26-.19c-10.7,0-19.36,11.15-19.36,24.91s8.66,24.92,19.36,24.92a15.31,15.31,0,0,0,2.26-.19l.13.19h8.77c10.69,0,19.36-11.16,19.36-24.92S232.89,399.1,222.2,399.1Z" style="fill:#263238;stroke:#263238;stroke-linecap:round;stroke-linejoin:round"></path><path d="M485.31,399.83H481.1l-3.77-26.43a6.53,6.53,0,0,0-6.46-5.61H447.28L409,327.14a22,22,0,0,0-16-6.89H291.47a16.2,16.2,0,0,0-11.72,5l-174.4,73.62V430H366.82l65.63-.47,48.65-3.19v-.22h4a1.6,1.6,0,0,0,1.59-1.6V401.22A1.39,1.39,0,0,0,485.31,399.83Z" style="fill:#fff;stroke:#263238;stroke-linecap:round;stroke-linejoin:round"></path><path d="M411,425.18v4.46l21.42-.15,48.65-3.19v-.22h4a1.58,1.58,0,0,0,1.41-.9Z" style="fill:#263238;stroke:#263238;stroke-linecap:round;stroke-linejoin:round"></path><path d="M432.45,429.49h0a1.6,1.6,0,0,0-.11-3.19h-24.6l-91-106H291.47a16.2,16.2,0,0,0-11.72,5l-174.4,73.62V430H366.82Z" style="fill:#263238;stroke:#263238;stroke-linecap:round;stroke-linejoin:round"></path><path d="M146.09,399.1h-8.77l-5.75,8.44a30.44,30.44,0,0,0,0,32.94l5.75,8.45h8.77c10.69,0,19.36-11.16,19.36-24.92S156.78,399.1,146.09,399.1Z" style="fill:#263238;stroke:#263238;stroke-linecap:round;stroke-linejoin:round"></path><ellipse cx="134.93" cy="424.01" rx="19.36" ry="24.91" style="fill:#636363;stroke:#263238;stroke-linecap:round;stroke-linejoin:round"></ellipse><ellipse cx="134.93" cy="424.01" rx="15.45" ry="19.87" style="fill:#fff;stroke:#263238;stroke-linecap:round;stroke-linejoin:round"></ellipse><path d="M138.19,424c0,2.32-1.46,4.2-3.26,4.2s-3.27-1.88-3.27-4.2,1.46-4.2,3.27-4.2S138.19,421.69,138.19,424Z" style="fill:#fff;stroke:#263238;stroke-linecap:round;stroke-linejoin:round"></path><path d="M341.51,399.1h-8.77L327,407.54a30.44,30.44,0,0,0,0,32.94l5.75,8.45h8.77c10.69,0,19.36-11.16,19.36-24.92S352.2,399.1,341.51,399.1Z" style="fill:#263238;stroke:#263238;stroke-linecap:round;stroke-linejoin:round"></path><path d="M349.71,424c0,13.76-8.67,24.92-19.36,24.92S311,437.77,311,424s8.66-24.91,19.36-24.91S349.71,410.25,349.71,424Z" style="fill:#636363;stroke:#263238;stroke-linecap:round;stroke-linejoin:round"></path><path d="M345.79,424c0,11-6.91,19.88-15.44,19.88S314.9,435,314.9,424s6.92-19.87,15.45-19.87S345.79,413,345.79,424Z" style="fill:#fff;stroke:#263238;stroke-linecap:round;stroke-linejoin:round"></path><path d="M333.61,424c0,2.32-1.46,4.2-3.26,4.2s-3.27-1.88-3.27-4.2,1.47-4.2,3.27-4.2S333.61,421.69,333.61,424Z" style="fill:#fff;stroke:#263238;stroke-linecap:round;stroke-linejoin:round"></path><path d="M409,327.14c-.32-.33-.66-.64-1-.95h-79.1v39.08h116Z" style="fill:#263238;stroke:#263238;stroke-linecap:round;stroke-linejoin:round"></path><path d="M418.06,399.83h-4.61l-4.57-32H379.62l-38.3-40.65a21.92,21.92,0,0,0-16-6.89h-93.2a16.24,16.24,0,0,0-11.73,5L160.89,365l-55.08,23.77-8.62,11.58a16.5,16.5,0,0,0-3.27,9.85V430h17.37v-6.57c0-16.07,11.68-29.09,26.09-29.09h0c12.84,0,20.82,10.41,22.82,24.55L161.78,430H306.94v-6.57c0-16.07,6.59-29.09,24.31-29.09h0c15.79,0,21.43,10.41,23.89,24.55L357,429.49l56.45-3.19v-.22h4.61Z" style="fill:#fff;stroke:#263238;stroke-linecap:round;stroke-linejoin:round"></path><path d="M220.92,331.1,169.8,365h95.54V326.65H231.51A14.82,14.82,0,0,0,220.92,331.1Z" style="fill:#263238;stroke:#263238;stroke-linecap:round;stroke-linejoin:round"></path><path d="M209.82,365l30.3-38.39h-8.61a14.82,14.82,0,0,0-10.59,4.45L203,343,185.62,365Z" style="fill:#fff;stroke:#263238;stroke-linecap:round;stroke-linejoin:round"></path><polygon points="265.34 365.04 265.34 337.47 243.58 365.04 265.34 365.04" style="fill:#fff;stroke:#263238;stroke-linecap:round;stroke-linejoin:round"></polygon><path d="M338.14,332.9l21.73,22.23a5.87,5.87,0,0,1,1.49,2.66h0a5.84,5.84,0,0,1-5.67,7.25H271.74V326.65h51.53A20.79,20.79,0,0,1,338.14,332.9Z" style="fill:#263238;stroke:#263238;stroke-linecap:round;stroke-linejoin:round"></path><polygon points="317.78 326.65 309.34 326.65 279.04 365.04 287.48 365.04 317.78 326.65" style="fill:#fff;stroke:#263238;stroke-linecap:round;stroke-linejoin:round"></polygon><polygon points="271.74 329.36 271.74 360.03 298.08 326.65 273.88 326.65 271.74 329.36" style="fill:#fff;stroke:#263238;stroke-linecap:round;stroke-linejoin:round"></polygon><path d="M408.88,367.79h62a6.53,6.53,0,0,1,6.46,5.61l3.77,26.43H413.45Z" style="fill:#fff;stroke:#263238;stroke-linecap:round;stroke-linejoin:round"></path><rect x="438.32" y="382.24" width="29.4" height="12.07" style="fill:#fff;stroke:#263238;stroke-linecap:round;stroke-linejoin:round"></rect><line x1="484.34" y1="404.77" x2="358.37" y2="404.77" style="fill:#fff;stroke:#263238;stroke-linecap:round;stroke-linejoin:round;stroke-width:2px"></line><line x1="302.08" y1="404.77" x2="162.48" y2="404.77" style="fill:#fff;stroke:#263238;stroke-linecap:round;stroke-linejoin:round;stroke-width:2px"></line><line x1="116.14" y1="404.77" x2="100.16" y2="404.77" style="fill:#fff;stroke:#263238;stroke-linecap:round;stroke-linejoin:round;stroke-width:2px"></line><path d="M433.25,382.43H405.47a6.91,6.91,0,0,0-6.19,3.83l-4.64,9.29a2.79,2.79,0,0,0,2.5,4h36.11Z" style="fill:#b2b2b2;stroke:#263238;stroke-linecap:round;stroke-linejoin:round"></path><polygon points="433.25 382.43 410.86 382.43 413.31 399.59 433.25 399.59 433.25 382.43" style="fill:#263238;stroke:#263238;stroke-linecap:round;stroke-linejoin:round"></polygon><polygon points="478.52 382.43 471.74 382.43 471.65 399.59 480.96 399.59 478.52 382.43" style="fill:#263238;stroke:#263238;stroke-linecap:round;stroke-linejoin:round"></polygon><rect x="160.2" y="357.04" width="17.83" height="15.09" rx="2" style="fill:#263238;stroke:#263238;stroke-linecap:round;stroke-linejoin:round"></rect><rect x="245.91" y="372.13" width="17.14" height="6.86" style="fill:#263238;stroke:#263238;stroke-linecap:round;stroke-linejoin:round"></rect><line x1="267.17" y1="369.39" x2="267.17" y2="421.5" style="fill:none;stroke:#263238;stroke-linecap:round;stroke-linejoin:round"></line><path d="M151.29,392.7s12.55,7.09,14.16,31.31H298.71" style="fill:none;stroke:#263238;stroke-linecap:round;stroke-linejoin:round"></path><path d="M361.8,403s-6.57-17.15-28.55-17.15c-15.32,0-22.64,8.05-26.31,14.4" style="fill:none;stroke:#263238;stroke-linecap:round;stroke-linejoin:round"></path></g><g id="freepik--Character--inject-211"><path d="M90.38,271.64s-3.58-5-7.66-4.85S71.51,271,71.28,274.18s5.41,11.53,5.41,11.53l-1.61,6.16,13.65,5.43,1-5s4.79-.19,4.76-.89.26-7.12.26-7.12a1.77,1.77,0,0,0,1-2.35,20.68,20.68,0,0,0-2.84-4.51A7.41,7.41,0,0,0,90.38,271.64Z" style="fill:#fff;stroke:#263238;stroke-linecap:round;stroke-linejoin:round"></path><path d="M92.56,279c.2.54.19,1.05,0,1.14s-.57-.29-.77-.83-.18-1,0-1.14S92.36,278.42,92.56,279Z" style="fill:#263238"></path><path d="M92.92,277.41s-1.32-1.32-2.18-.21" style="fill:none;stroke:#263238;stroke-linecap:round;stroke-linejoin:round"></path><path d="M93.7,286a3.3,3.3,0,0,1-2.35-.86" style="fill:none;stroke:#263238;stroke-linecap:round;stroke-linejoin:round"></path><path d="M90.38,271.64l-4.24.7s1.67,1.72,1,2.81l-.67,1.09-.88,4.66-1.41.23s-3.34-3.6-4.85-1.23,1.44,4.92,1.44,4.92-2,2.75-3.43,3.16-.24-1.59-2.6-2.74-6.12-6.52-5.69-9,2.89-7.94,7.62-9.54,7.76-1.55,10.1-.94,5,.52,5.42,2.28S90.38,271.64,90.38,271.64Z" style="fill:#263238;stroke:#263238;stroke-linecap:round;stroke-linejoin:round"></path><polygon points="92.9 326.46 102.28 334.62 98.51 342.59 92.2 340.35 92.9 326.46" style="fill:#fff;stroke:#263238;stroke-linecap:round;stroke-linejoin:round"></polygon><polygon points="100.6 332.38 96.21 342.68 98.76 344.36 106.4 335.35 100.6 332.38" style="fill:#fff;stroke:#263238;stroke-linecap:round;stroke-linejoin:round"></polygon><path d="M105,336.47l14.41,4.76s5,1.4,5.59,1.91,2.25,3.11,1.75,4a2.23,2.23,0,0,1-1.74,1,24.92,24.92,0,0,0-3,.3c-1,.21-3.4-.76-5-1.05s-4.56-2.84-4.56-2.84l-12-2.55Z" style="fill:#fff;stroke:#263238;stroke-linecap:round;stroke-linejoin:round"></path><path d="M122.17,343.77s-1,2,.15,3,3.59,1.32,4.35-.57S123.91,342.31,122.17,343.77Z" style="fill:#263238;stroke:#263238;stroke-linecap:round;stroke-linejoin:round"></path><path d="M115.92,341.7s3.26-.86,3.94-1,3.39,1.28,4.21,1.28,2.9-1.05,2.49.09-.62,1.1-1.73,1.77-4-.06-4-.06a4.23,4.23,0,0,1-3.1,1.35c-1.77-.15-1.5-1.29-1.5-1.29" style="fill:#fff;stroke:#263238;stroke-linecap:round;stroke-linejoin:round"></path><path d="M55.49,438.62s3.3,3.61,4.71,4.35,6.56,1.51,6.79,2.49-.52,1.79-3,2.48a17,17,0,0,1-8.86.15c-4.17-.82-8.52-1.24-10.31-1.76s-2.34.49-2.82-1.46,1.57-5.38,1.57-5.38S54.28,437.69,55.49,438.62Z" style="fill:#fff;stroke:#263238;stroke-linecap:round;stroke-linejoin:round"></path><path d="M66.18,360s-4.65,27-5.93,29.58-10,20.48-11,25.45-5.84,21.7-5.84,21.7l.11,2.75a11.27,11.27,0,0,0,3.37.65c1.38-.05,8.6-1.52,8.6-1.52a6.11,6.11,0,0,0,.65-3.57c-.27-2-2.35-4.63-1.79-5.44S66,405.51,66.57,404.9s5.33-4.74,6.56-8.34S83.5,374.88,83.5,374.88s-8.38-7.74-12-10.75S66.18,360,66.18,360Z" style="fill:#263238;stroke:#263238;stroke-linecap:round;stroke-linejoin:round"></path><path d="M121.52,434.83a40.49,40.49,0,0,0,7.14,1.1c2.16-.09,7.78-2.28,8.24-.72s-2.16,5.2-4.84,7.08a55.26,55.26,0,0,1-10.64,4.95c-1.56.46-4,2.72-6.84,1.26s-2-7-2-7Z" style="fill:#fff;stroke:#263238;stroke-linecap:round;stroke-linejoin:round"></path><path d="M93.46,357.75s10,27.77,12.2,34.57,3.43,12.08,3.65,12.66,12.21,29.85,12.21,29.85-3.68,6.45-6,7.53a17.34,17.34,0,0,1-3.69,1.32s-13.87-27-15.65-32.07S92.7,398.15,91,394.48,63.42,363,63.42,363A74.7,74.7,0,0,1,78,359.94C84.47,359.48,93.46,357.75,93.46,357.75Z" style="fill:#263238;stroke:#263238;stroke-linecap:round;stroke-linejoin:round"></path><path d="M87.33,298.07s4.12,5.34,5.37,9.92,1.64,18.95,1.64,18.95.18,27,.42,28.6a27.6,27.6,0,0,0,1.61,4.73,44.66,44.66,0,0,0-10.59,1.84c-4.92,1.62-8.78,2.66-12,2.78S63.42,363,63.42,363s.56-8.37,1.15-11.42a60.17,60.17,0,0,0,.78-7.14l-.47-11.88s-2.67-13.58-.95-19.69,3.24-12.22,5.82-14.45a32.11,32.11,0,0,0,4.43-4.8Z" style="fill:#fff;stroke:#263238;stroke-linecap:round;stroke-linejoin:round"></path><polygon points="75.4 288.41 74.18 293.61 86.93 301.28 88.31 295.72 75.4 288.41" style="fill:#fff;stroke:#263238;stroke-linecap:round;stroke-linejoin:round"></polygon><path d="M55.39,339.67,58,356.1a35.83,35.83,0,0,0-2.27,5.6,40.47,40.47,0,0,1-1.08,4.13c-.15.54-.62,6.6.45,6.74s4.87,1.94,5.55,1.2a21.32,21.32,0,0,0,2.78-6.15c.13-1.25,1-10.53.74-12.83s.79-16,.79-16S58.27,336.18,55.39,339.67Z" style="fill:#fff;stroke:#263238;stroke-linecap:round;stroke-linejoin:round"></path><path d="M75,296.24s-5.37-.85-7.75,1.73S56,324,55.93,326.5s-.33,9.61-.33,9.61l9.61.33,3.18-9.54L80,310.44" style="fill:#fff;stroke:#263238;stroke-linecap:round;stroke-linejoin:round"></path><path d="M54.28,334.21l1.11,5.46a8.12,8.12,0,0,1,3.88-.68,14.65,14.65,0,0,1,5.59,1.91A26,26,0,0,0,66.4,335C66.49,332.84,61.91,329.29,54.28,334.21Z" style="fill:#fff;stroke:#263238;stroke-linecap:round;stroke-linejoin:round"></path><line x1="72.52" y1="321.15" x2="82.34" y2="315.45" style="fill:#fff;stroke:#263238;stroke-linecap:round;stroke-linejoin:round"></line></g><g id="freepik--pillar-1--inject-211"><rect x="185.93" y="43.63" width="119.63" height="405.3" style="fill:#fff;stroke:#263238;stroke-linecap:round;stroke-linejoin:round"></rect><rect x="185.93" y="292.63" width="119.63" height="156.3" style="fill:#AA3C3C;stroke:#263238;stroke-linecap:round;stroke-linejoin:round"></rect><polygon points="252.84 395.56 188.8 331.52 188.8 351.92 252.84 415.96 252.84 395.56" style="fill:#263238"></polygon><polygon points="303.33 446.06 287.36 430.08 287.36 446.06 303.33 446.06" style="fill:#263238"></polygon><polygon points="252.84 446.06 252.84 434.58 188.8 370.54 188.8 390.94 243.92 446.06 252.84 446.06" style="fill:#263238"></polygon><polygon points="252.84 356.54 191.76 295.46 188.8 295.46 188.8 312.9 252.84 376.94 252.84 356.54" style="fill:#263238"></polygon><polygon points="287.36 391.06 287.36 411.46 305.56 429.66 305.56 409.26 287.36 391.06" style="fill:#263238"></polygon><polygon points="225.3 446.06 188.8 409.56 188.8 429.95 204.9 446.06 225.3 446.06" style="fill:#263238"></polygon><polygon points="252.84 317.52 230.78 295.46 210.38 295.46 252.84 337.92 252.84 317.52" style="fill:#263238"></polygon><polygon points="287.36 352.04 287.36 372.44 305.56 390.64 305.56 370.24 287.36 352.04" style="fill:#263238"></polygon><rect x="257.06" y="43.63" width="48.49" height="405.3" style="fill:#fff;stroke:#263238;stroke-linecap:round;stroke-linejoin:round"></rect><rect x="257.06" y="292.63" width="48.49" height="156.3" style="fill:#AA3C3C;stroke:#263238;stroke-linecap:round;stroke-linejoin:round"></rect><polygon points="260.34 363.23 260.34 383.63 303.87 340.1 303.87 319.7 260.34 363.23" style="fill:#263238"></polygon><polygon points="260.34 441.26 260.34 448.93 273.08 448.93 303.87 418.14 303.87 397.74 260.34 441.26" style="fill:#263238"></polygon><polygon points="289.59 294.96 260.34 324.21 260.34 344.61 303.87 301.08 303.87 294.96 289.59 294.96" style="fill:#263238"></polygon><polygon points="260.34 402.25 260.34 422.64 303.87 379.12 303.87 358.72 260.34 402.25" style="fill:#263238"></polygon><polygon points="303.87 436.75 291.7 448.93 303.87 448.93 303.87 436.75" style="fill:#263238"></polygon></g><g id="freepik--lights-1--inject-211"><line x1="122.57" y1="78.16" x2="122.57" y2="43.63" style="fill:none;stroke:#263238;stroke-linecap:round;stroke-linejoin:round"></line><line x1="98.11" y1="78.16" x2="98.11" y2="43.63" style="fill:#fff;stroke:#000;stroke-miterlimit:10"></line><line x1="73.64" y1="78.16" x2="73.64" y2="43.63" style="fill:#fff;stroke:#000;stroke-miterlimit:10"></line><line x1="209.63" y1="78.16" x2="209.63" y2="43.63" style="fill:none;stroke:#263238;stroke-linecap:round;stroke-linejoin:round"></line><line x1="185.17" y1="78.16" x2="185.17" y2="43.63" style="fill:#fff;stroke:#000;stroke-miterlimit:10"></line><line x1="160.7" y1="78.16" x2="160.7" y2="43.63" style="fill:#fff;stroke:#000;stroke-miterlimit:10"></line><rect x="154.75" y="78.96" width="72.38" height="12.94" style="fill:#263238;stroke:#263238;stroke-linecap:round;stroke-linejoin:round"></rect><rect x="154.75" y="83.4" width="72.38" height="8.5" style="fill:#fff;stroke:#263238;stroke-linecap:round;stroke-linejoin:round"></rect><rect x="177.12" y="83.4" width="50.01" height="8.5" style="fill:#fff;stroke:#263238;stroke-linecap:round;stroke-linejoin:round"></rect><rect x="64.47" y="78.96" width="72.38" height="12.94" style="fill:#263238;stroke:#263238;stroke-linecap:round;stroke-linejoin:round"></rect><rect x="64.47" y="83.4" width="72.38" height="8.5" style="fill:#fff;stroke:#263238;stroke-linecap:round;stroke-linejoin:round"></rect><rect x="86.84" y="83.4" width="50.01" height="8.5" style="fill:#fff;stroke:#263238;stroke-linecap:round;stroke-linejoin:round"></rect><rect x="32.25" y="64.49" width="193.93" height="5.76" style="fill:#263238;stroke:#263238;stroke-linecap:round;stroke-linejoin:round"></rect></g><g id="freepik--Number--inject-211"><path d="M283,250.82q-4.68,0-7.17-1.71a8.6,8.6,0,0,1-3.39-4.8,25.58,25.58,0,0,1-.91-7.23h8.22a23.33,23.33,0,0,0,.3,4.08,4.76,4.76,0,0,0,1.1,2.49,3.05,3.05,0,0,0,2.4.77,2.65,2.65,0,0,0,2.32-1.21,7.45,7.45,0,0,0,.88-3.31c.11-1.44.17-3.13.17-5.08a27.37,27.37,0,0,0-.28-4.19,6.23,6.23,0,0,0-1.07-2.87,2.91,2.91,0,0,0-2.46-1,3.18,3.18,0,0,0-2.45,1,6.43,6.43,0,0,0-1.41,3H272l.61-25.37h20.52v7.33H279.62l-.49,9.88a5.15,5.15,0,0,1,2.23-1.44,11.62,11.62,0,0,1,3.39-.72,8.23,8.23,0,0,1,5.77,1.33,9.7,9.7,0,0,1,3.39,4.88,24.62,24.62,0,0,1,1.1,7.86,45.88,45.88,0,0,1-.44,6.54,14.38,14.38,0,0,1-1.71,5.18,8.66,8.66,0,0,1-3.64,3.39A13.56,13.56,0,0,1,283,250.82Z" style="fill:#263238"></path></g><g id="freepik--Sign--inject-211"><rect x="259.68" y="146.04" width="42.24" height="42.24" rx="3.38" style="fill:#263238;stroke:#263238;stroke-linecap:round;stroke-linejoin:round"></rect><path d="M272,184.74v-35.8h11.36a10.16,10.16,0,0,1,5.26,1.22,7.38,7.38,0,0,1,3,3.51,13.87,13.87,0,0,1,1,5.57,11.65,11.65,0,0,1-1.31,6,7.16,7.16,0,0,1-3.55,3.07,13.7,13.7,0,0,1-5.17.91h-3.32v15.51Zm7.29-20.64h2.56a4.88,4.88,0,0,0,2.46-.51,2.58,2.58,0,0,0,1.17-1.61,11,11,0,0,0,.31-2.83,13.2,13.2,0,0,0-.24-2.74,2.85,2.85,0,0,0-1.09-1.72,4.52,4.52,0,0,0-2.65-.62h-2.52Z" style="fill:#AA3C3C"></path></g><g id="freepik--Floor--inject-211"><line x1="23.33" y1="448.93" x2="738.37" y2="448.93" style="fill:none;stroke:#263238;stroke-linecap:round;stroke-linejoin:round"></line></g></svg>